<svg width="129" height="129" viewBox="0 0 129 129" fill="none" xmlns="http://www.w3.org/2000/svg">
<path d="M92.6098 64.7286C90.1308 63.5503 87.6015 62.5352 85.0278 61.6848C93.3631 55.4284 98.7649 45.4659 98.7649 34.2654C98.7649 15.3716 83.3936 0 64.4995 0C45.6054 0 30.2341 15.3716 30.2341 34.2654C30.2341 45.4783 35.648 55.4505 43.999 61.7057C36.3477 64.2247 29.1683 68.1444 22.8847 73.3129C11.3624 82.7906 3.35111 96.0102 0.326936 110.537C-0.620906 115.089 0.51464 119.764 3.44181 123.363C6.35463 126.945 10.6738 128.999 15.2916 128.999H77.3491C80.1321 128.999 82.3881 126.743 82.3881 123.96C82.3881 121.177 80.1321 118.921 77.3491 118.921H15.2916C13.1404 118.921 11.8426 117.72 11.2606 117.005C10.2556 115.769 9.86658 114.16 10.1934 112.591C15.4226 87.4726 37.5782 69.1239 63.1637 68.5052C63.6069 68.5223 64.0521 68.5309 64.4995 68.5309C64.9513 68.5309 65.401 68.522 65.8485 68.5046C73.6892 68.6886 81.2301 70.4779 88.2833 73.8309C90.797 75.0252 93.8028 73.9566 94.9975 71.4429C96.1923 68.9294 95.1235 65.9234 92.6098 64.7286ZM65.7285 58.4218C65.3196 58.4145 64.91 58.4107 64.4995 58.4107C64.0929 58.4107 63.6862 58.4147 63.2801 58.4223C50.5074 57.7851 40.3122 47.1936 40.3122 34.2654C40.3122 20.9284 51.1625 10.0781 64.4995 10.0781C77.8366 10.0781 88.6869 20.9284 88.6869 34.2654C88.6869 47.1903 78.4967 57.7798 65.7285 58.4218Z" fill="#000850"/>
<path d="M123.961 100.026H110.103V86.1682C110.103 83.3851 107.847 81.1292 105.064 81.1292C102.281 81.1292 100.025 83.3851 100.025 86.1682V100.026H86.1679C83.3849 100.026 81.1289 102.282 81.1289 105.065C81.1289 107.848 83.3849 110.104 86.1679 110.104H100.025V123.961C100.025 126.744 102.281 129 105.064 129C107.847 129 110.103 126.744 110.103 123.961V110.104H123.961C126.744 110.104 129 107.848 129 105.065C129 102.282 126.744 100.026 123.961 100.026Z" fill="#000850"/>
</svg>
