<svg width="179" height="123" viewBox="0 0 179 123" fill="none" xmlns="http://www.w3.org/2000/svg">
<path d="M2.43799 67.3768L55.7053 120.566C58.9553 123.811 64.2261 123.811 67.4761 120.566C70.7268 117.32 70.7268 112.058 67.4761 108.813L28.4171 69.8109H170.677C175.273 69.8109 179 66.0897 179 61.5001C179 56.9112 175.273 53.1893 170.677 53.1893H28.4171L67.4748 14.1876C70.7254 10.9417 70.7254 5.67995 67.4748 2.43407C65.8501 0.812465 63.7194 1.86503e-06 61.5894 1.86503e-06C59.4594 1.86503e-06 57.3293 0.812465 55.704 2.43407L2.43799 55.6233C-0.812654 58.8692 -0.812654 64.131 2.43799 67.3768Z" fill="#000850"/>
</svg>
