<svg width="26" height="25" viewBox="0 0 26 25" fill="none" xmlns="http://www.w3.org/2000/svg">
<path opacity="0.9" d="M13.3071 0.662842C8.87302 0.662842 4.9457 3.07427 2.9187 6.75487L0.00488281 3.83577V12.0854H8.23958L4.69233 8.53171C6.33927 5.35878 9.50646 3.20119 13.3071 3.20119C18.5013 3.20119 22.8087 7.51638 22.8087 12.72C22.8087 17.9236 18.5013 22.2388 13.3071 22.2388C9.12639 22.2388 5.70583 19.5735 4.31226 15.8929H1.65182C3.04539 20.9696 7.73283 24.7771 13.3071 24.7771C20.0215 24.7771 25.3424 19.3197 25.3424 12.72C25.3424 6.12029 19.8948 0.662842 13.3071 0.662842ZM11.4068 7.00871V13.4815L17.3611 17.0352L18.3746 15.3852L13.3071 12.3392V7.00871H11.4068Z" fill="#091476"/>
</svg>
