<svg width="455" height="455" viewBox="0 0 455 455" fill="none" xmlns="http://www.w3.org/2000/svg">
<path d="M315 157.5C315 70.515 244.485 0 157.5 0C70.515 0 0 70.515 0 157.5C0 190.42 10.106 220.976 27.376 246.249L6.689 308.311L68.752 287.624C94.024 304.894 124.58 315 157.5 315C244.485 315 315 244.485 315 157.5Z" fill="#091476"/>
<path d="M455 297.5C455 226.967 408.63 167.276 344.716 147.216C344.9 150.63 345 154.058 345 157.5C345 182.799 340.038 207.357 330.253 230.492C320.808 252.823 307.292 272.872 290.082 290.082C272.872 307.292 252.823 320.807 230.492 330.252C207.357 340.039 182.799 345 157.5 345C154.057 345 150.629 344.886 147.212 344.701C167.267 408.623 226.961 455 297.5 455C330.42 455 360.976 444.894 386.249 427.624L448.312 448.311L427.624 386.249C444.894 360.977 455 330.42 455 297.5Z" fill="#091476"/>
</svg>
