<svg width="25" height="24" viewBox="0 0 25 24" fill="none" xmlns="http://www.w3.org/2000/svg">
<path d="M22.1589 9.4962C20.6029 11.0687 18.4859 11.9352 16.2849 11.9352H7.9008C5.69983 11.9352 3.5829 11.0687 2.02673 9.4962L0.0273438 11.5166C2.11784 13.6291 4.94522 14.7928 7.90146 14.7928H16.2842C19.2405 14.7928 22.0678 13.6291 24.1583 11.5166L22.1589 9.4962Z" fill="#091476"/>
<path d="M21.2877 19.0793V17.6504H12.8041V19.0793H11.3902V17.6504H2.9066V19.0793H1.49268V20.5081H3.16724C3.75279 22.1676 5.30755 23.3657 7.14839 23.3657C8.98922 23.3657 10.5441 22.1676 11.1296 20.5081H13.0647C13.6503 22.1676 15.205 23.3657 17.0459 23.3657C18.8867 23.3657 20.4416 22.1676 21.0271 20.5081H22.7016V19.0793H21.2877Z" fill="#091476"/>
<path d="M14.9166 0.457153H14.2096V1.17156C14.2096 2.35337 13.2583 3.31477 12.0887 3.31477C10.9192 3.31477 9.96786 2.35337 9.96786 1.17156V0.457153H9.26089C7.31189 0.457153 5.72607 2.05966 5.72607 4.02918V7.64883H18.4514V4.02918C18.4514 2.05961 16.8656 0.457153 14.9166 0.457153Z" fill="#091476"/>
<path d="M5.72607 9.07761V10.1203C6.41951 10.3556 7.14387 10.5064 7.89669 10.5064H16.2809C17.0336 10.5064 17.758 10.3556 18.4515 10.1203V9.07761H5.72607Z" fill="#091476"/>
</svg>
