<svg width="28" height="22" viewBox="0 0 28 22" fill="none" xmlns="http://www.w3.org/2000/svg">
<path d="M8.49455 0C5.67645 0 3.38379 2.45879 3.38379 5.48103C3.38379 8.50326 5.67645 10.9621 8.49455 10.9621C11.3127 10.9621 13.6054 8.50326 13.6054 5.48103C13.6054 2.45879 11.3127 0 8.49455 0Z" fill="#F9E658"/>
<path d="M20.1138 0.784302C20.1023 0.784302 20.0905 0.784357 20.079 0.784412C18.8963 0.794314 17.7917 1.2994 16.9685 2.20675C16.1598 3.09805 15.72 4.2739 15.7302 5.51762C15.7403 6.76135 16.1992 7.92967 17.0223 8.80742C17.8519 9.69198 18.9509 10.1778 20.1204 10.1778C20.1322 10.1778 20.1439 10.1777 20.1557 10.1777C21.3384 10.1678 22.4431 9.66261 23.2663 8.75532C24.075 7.86401 24.5147 6.68816 24.5046 5.44439C24.4835 2.867 22.5173 0.784302 20.1138 0.784302Z" fill="#F9E658"/>
<path d="M20.3298 11.0751H19.9054C17.929 11.0751 16.1254 11.8352 14.7637 13.0809C15.1044 13.3453 15.4287 13.6335 15.736 13.9444C16.6427 14.8615 17.3548 15.9302 17.8524 17.1206C18.3009 18.1926 18.5568 19.3222 18.6164 20.4855H28.0002V18.8332C28.0002 14.5556 24.5593 11.0751 20.3298 11.0751Z" fill="#F9E658"/>
<path d="M16.9723 20.4854C16.8175 17.9636 15.5537 15.7454 13.6675 14.3238C12.2954 13.2894 10.5935 12.6771 8.75 12.6771H8.23922C3.68867 12.6771 0 16.4081 0 21.0109V22H16.9887V21.0109C16.9887 20.8345 16.9832 20.6591 16.9723 20.4854Z" fill="#F9E658"/>
</svg>
