<svg width="58" height="72" viewBox="0 0 58 72" fill="none" xmlns="http://www.w3.org/2000/svg">
<path d="M28.8604 0C12.9509 0 0 12.9509 0 28.8604C0 30.6717 0.166037 32.4981 0.513207 34.2792C0.528302 34.3849 0.588679 34.7019 0.709434 35.2453C1.14717 37.1925 1.79623 39.1094 2.64151 40.9359C5.75094 48.2566 12.5887 59.5019 27.5925 71.5472C27.9698 71.8491 28.4226 72 28.8755 72C29.3283 72 29.7811 71.8491 30.1585 71.5472C45.1472 59.5019 52 48.2566 55.1094 40.9359C55.9547 39.1094 56.6038 37.2075 57.0415 35.2453C57.1623 34.7019 57.2226 34.3849 57.2377 34.2792C57.5698 32.4981 57.7509 30.6717 57.7509 28.8604C57.7208 12.9509 44.7698 0 28.8604 0ZM53.1925 33.5698C53.1925 33.6 53.1774 33.6302 53.1774 33.6604C53.1623 33.7358 53.117 33.9623 53.0415 34.3094C53.0415 34.3245 53.0415 34.3245 53.0415 34.3396C52.6642 36.0302 52.1057 37.6755 51.366 39.2604C51.3509 39.2755 51.3509 39.3057 51.3358 39.3208C48.5132 46.0075 42.3245 56.2113 28.8604 67.3359C15.3962 56.2113 9.20755 46.0075 6.38491 39.3208C6.36981 39.3057 6.36981 39.2755 6.35472 39.2604C5.63019 37.6906 5.0717 36.0302 4.67924 34.3396C4.67924 34.3245 4.67924 34.3245 4.67924 34.3094C4.58868 33.9623 4.55849 33.7358 4.5434 33.6604C4.5434 33.6302 4.5283 33.6 4.5283 33.5547C4.22641 32 4.07547 30.4302 4.07547 28.8453C4.07547 15.1849 15.2 4.06038 28.8604 4.06038C42.5208 4.06038 53.6453 15.1849 53.6453 28.8453C53.6453 30.4453 53.4943 32.0302 53.1925 33.5698Z" fill="#7379B1"/>
<path d="M28.8607 10.8528C18.7625 10.8528 10.5361 19.0793 10.5361 29.1774C10.5361 39.2755 18.7625 47.5019 28.8607 47.5019C38.9588 47.5019 47.1852 39.2755 47.1852 29.1774C47.1852 19.0793 38.9588 10.8528 28.8607 10.8528ZM28.8607 43.4264C20.9965 43.4264 14.6116 37.0264 14.6116 29.1774C14.6116 21.3283 21.0116 14.9283 28.8607 14.9283C36.7097 14.9283 43.1097 21.3283 43.1097 29.1774C43.1097 37.0264 36.7248 43.4264 28.8607 43.4264Z" fill="#7379B1"/>
</svg>
