<svg width="25" height="22" viewBox="0 0 25 22" fill="none" xmlns="http://www.w3.org/2000/svg">
<path d="M21.8512 11.9629H18.8058C18.8035 11.9629 18.8014 11.9629 18.7992 11.9629C17.7006 11.9629 16.7422 12.6103 16.3564 13.6136C16.3051 13.7472 16.2424 13.9153 16.1769 14.1113H9.78303C9.51902 14.1113 9.26623 14.2182 9.08235 14.4076L7.40481 16.1355C7.03533 16.5162 7.03718 17.122 7.40896 17.5003L9.11794 19.2392C9.30154 19.426 9.55251 19.5312 9.81443 19.5312H12.9883C13.5276 19.5312 13.9648 19.094 13.9648 18.5547C13.9648 18.0153 13.5276 17.5781 12.9883 17.5781H10.2239L9.47058 16.8117L10.196 16.0645H16.9094C17.3593 16.0645 17.751 15.7571 17.8579 15.3201C17.9369 14.9976 18.036 14.6875 18.1794 14.3145C18.2739 14.0686 18.5113 13.916 18.8015 13.916C18.8022 13.916 18.8028 13.916 18.8034 13.916H21.8489C22.1251 13.9167 22.3628 14.0651 22.4693 14.3033C22.7315 14.8898 23.0445 15.7979 23.0468 16.7929C23.0492 17.7953 22.7364 18.7241 22.4737 19.3268C22.3677 19.5698 22.128 19.7266 21.8604 19.7266C21.8598 19.7266 21.8593 19.7266 21.8588 19.7266H18.7765C18.5063 19.7259 18.2532 19.5521 18.1468 19.294C18.0326 19.0172 17.9336 18.701 17.8442 18.3274C17.7186 17.8029 17.1915 17.4793 16.6672 17.605C16.1426 17.7305 15.8192 18.2575 15.9447 18.782C16.0582 19.2557 16.1878 19.6668 16.3413 20.0388C16.7514 21.0331 17.7055 21.6772 18.7742 21.6797H21.8565C21.8586 21.6797 21.8606 21.6797 21.8627 21.6797C22.9052 21.6797 23.8473 21.063 24.264 20.1074C24.6014 19.3334 25.003 18.1292 24.9999 16.7883C24.9968 15.4508 24.5917 14.2653 24.2524 13.5062C23.8344 12.5711 22.8927 11.9653 21.8512 11.9629Z" fill="#091476" fill-opacity="0.57"/>
<path d="M21.0449 17.7734C21.5843 17.7734 22.0215 17.3362 22.0215 16.7969C22.0215 16.2575 21.5843 15.8203 21.0449 15.8203C20.5056 15.8203 20.0684 16.2575 20.0684 16.7969C20.0684 17.3362 20.5056 17.7734 21.0449 17.7734Z" fill="#091476" fill-opacity="0.57"/>
<path d="M21.0938 0H3.90625C1.75234 0 0 1.75234 0 3.90625V15.1855C0 17.3395 1.75234 19.0918 3.90625 19.0918H4.24805C4.7874 19.0918 5.22461 18.6546 5.22461 18.1152C5.22461 17.5759 4.7874 17.1387 4.24805 17.1387H3.90625C2.8293 17.1387 1.95312 16.2625 1.95312 15.1855V4.11318L10.4373 9.38882C11.0735 9.78447 11.7866 9.98223 12.5 9.98223C13.2132 9.98223 13.9267 9.78438 14.5627 9.38887L23.0469 4.11318V9.32617C23.0469 9.86553 23.4841 10.3027 24.0234 10.3027C24.5628 10.3027 25 9.86553 25 9.32617V3.90625C25 1.75234 23.2477 0 21.0938 0ZM13.5314 7.73018C12.8952 8.12583 12.1048 8.12583 11.4687 7.73018L2.76851 2.32021C3.08916 2.08955 3.48198 1.95312 3.90625 1.95312H21.0938C21.5181 1.95312 21.9108 2.08955 22.2315 2.32026L13.5314 7.73018Z" fill="#091476" fill-opacity="0.57"/>
</svg>
