<svg width="30" height="24" viewBox="0 0 30 24" fill="none" xmlns="http://www.w3.org/2000/svg">
<path fill-rule="evenodd" clip-rule="evenodd" d="M10.3341 11.5319C10.0411 13.0565 9.75202 14.5814 9.46394 16.1064L9.08796 18.0902C8.81941 19.4865 9.22859 20.9897 10.1651 22.0654C11.0684 23.1329 12.4591 23.7731 13.8643 23.7602C14.3721 21.0523 14.8829 18.3453 15.4093 15.6411C16.0343 15.6308 16.6612 15.6386 17.2891 15.6463C19.1368 15.6691 20.9893 15.692 22.794 15.2561C24.588 14.8407 26.3175 13.9731 27.546 12.5869C28.8956 11.0847 29.5909 9.10077 29.8028 7.12235C29.9454 5.89185 29.7891 4.59317 29.1475 3.51184C28.4288 2.21408 27.0958 1.36212 25.6905 0.954103C23.9102 0.44568 22.0401 0.427248 20.2022 0.44568C17.8546 0.44568 15.5089 0.447481 13.1612 0.449526L10.8048 11.629L10.3341 11.5319ZM11.9337 0.450594C11.9268 0.450594 11.919 0.450624 11.9122 0.450624C7.94148 0.454195 3.97077 0.457765 7.11038e-05 0.453981C-0.00676483 1.69461 0.479563 2.93344 1.34773 3.82868C2.27351 4.82526 3.62605 5.39722 4.98835 5.40735L6.06452 5.40729C7.67292 5.40717 9.2823 5.40704 10.8897 5.40921L11.9337 0.450594ZM10.7364 6.13413C8.11042 6.12094 5.48445 6.14252 2.85847 6.13223C2.84187 7.38855 3.35163 8.63657 4.23445 9.53458C5.16609 10.5054 6.50984 11.0801 7.86238 11.0681C8.4737 11.0681 9.08601 11.0691 9.69734 11.0686L10.7364 6.13413ZM16.4376 10.195C16.711 8.77011 16.9757 7.34342 17.253 5.91947C17.7393 5.92075 18.2257 5.91977 18.712 5.91879C19.6104 5.91699 20.5098 5.91522 21.4083 5.92777C22.1036 5.97748 22.8692 5.9729 23.461 6.39197C23.7774 6.62406 23.8536 7.04315 23.8077 7.41065C23.7286 8.1926 23.4454 9.02432 22.7794 9.50418C22.0401 10.0402 21.0899 10.1572 20.1993 10.1895C19.6768 10.1944 19.1544 10.1954 18.6319 10.1952C17.9005 10.1949 17.169 10.1923 16.4376 10.195Z" fill="#F9E658"/>
</svg>
