<svg width="29" height="25" viewBox="0 0 29 25" fill="none" xmlns="http://www.w3.org/2000/svg">
<path d="M26.8506 0H6.95224C5.75834 0 4.80322 1.04284 4.80322 2.28298V15.4171C4.80322 16.6855 5.78487 17.7001 6.95224 17.7001H20.6688L23.773 21.0259C23.9056 21.1669 24.0648 21.2514 24.2505 21.2514C24.622 21.2514 24.9404 20.9414 24.9404 20.5186V17.7001H26.8506C28.0445 17.7001 28.9996 16.6573 28.9996 15.4171V2.28298C28.9996 1.01466 28.018 0 26.8506 0ZM10.0033 11.3021C8.91555 11.3021 8.01349 10.3439 8.01349 9.18828C8.01349 8.0327 8.91555 7.07441 10.0033 7.07441C11.0911 7.07441 11.9932 8.0327 11.9932 9.18828C11.9932 10.3439 11.1176 11.3021 10.0033 11.3021ZM16.981 11.3021C15.8932 11.3021 14.9912 10.3439 14.9912 9.18828C14.9912 8.0327 15.8932 7.07441 16.981 7.07441C18.0688 7.07441 18.9708 8.0327 18.9708 9.18828C18.9708 10.3439 18.0688 11.3021 16.981 11.3021ZM23.9322 11.3021C22.8444 11.3021 21.9423 10.3439 21.9423 9.18828C21.9423 8.0327 22.8444 7.07441 23.9322 7.07441C25.0199 7.07441 25.922 8.0327 25.922 9.18828C25.922 10.3439 25.0199 11.3021 23.9322 11.3021Z" fill="#F9E658"/>
<path d="M3.5825 15.4735V10.9921H1.40695C0.637547 10.9921 0.000800013 11.6685 0.000800013 12.4859V21.1104C-0.0257311 21.9842 0.611016 22.6606 1.40695 22.6606H2.65391V24.5208C2.65391 24.7745 2.86616 25 3.10494 25C3.2376 25 3.34372 24.9436 3.42332 24.859L5.46621 22.6888H14.4868C15.2562 22.6888 15.8929 22.0124 15.8929 21.195V19.0529H6.95196C5.09478 19.0529 3.5825 17.4464 3.5825 15.4735Z" fill="#F9E658"/>
</svg>
