<svg width="161" height="45" viewBox="0 0 161 45" fill="none" xmlns="http://www.w3.org/2000/svg">
<path d="M91.4726 0.726685H69.5197C66.4708 0.726685 63.8793 1.79397 61.7447 3.92855C59.6101 6.06313 58.5432 8.65346 58.5432 11.7036V33.6581C58.5432 36.7086 59.6105 39.2993 61.7447 41.4315C63.8793 43.5669 66.4708 44.633 69.5197 44.633H91.4726C94.5219 44.633 97.1126 43.5669 99.2464 41.4315C101.38 39.2993 102.448 36.7086 102.448 33.6581V11.7036C102.448 8.65346 101.38 6.06193 99.2464 3.92855C97.1126 1.79397 94.5219 0.726685 91.4726 0.726685Z" fill="white"/>
<path d="M32.9294 0.726685H10.9757C7.92758 0.726685 5.33525 1.79397 3.20067 3.92855C1.06609 6.06273 0 8.65347 0 11.7032V33.6577C0 36.7082 1.06609 39.2989 3.20067 41.4311C5.33525 43.5665 7.92758 44.6326 10.9757 44.6326H32.9294C35.9775 44.6326 38.5698 43.5665 40.7044 41.4311C42.839 39.2989 43.9059 36.7082 43.9059 33.6577V11.7032C43.9059 8.65307 42.839 6.06153 40.7044 3.92816C38.5698 1.79518 35.9775 0.726685 32.9294 0.726685Z" fill="white"/>
<path d="M157.791 3.92855C155.656 1.79397 153.063 0.726685 150.014 0.726685H128.06C125.008 0.726685 122.418 1.79397 120.284 3.92855C118.15 6.06313 117.082 8.65346 117.082 11.7036V33.6581C117.082 36.7086 118.15 39.2993 120.284 41.4315C122.418 43.5669 125.008 44.633 128.06 44.633H150.014C153.063 44.633 155.656 43.5669 157.791 41.4315C159.923 39.2993 160.991 36.7086 160.991 33.6581V11.7036C160.991 8.65346 159.926 6.06153 157.791 3.92855Z" fill="white"/>
</svg>
