<svg width="25" height="29" viewBox="0 0 25 29" fill="none" xmlns="http://www.w3.org/2000/svg">
<path d="M18.8612 20.4241C19.4776 20.4241 19.9773 19.9244 19.9773 19.308C19.9773 18.6916 19.4776 18.192 18.8612 18.192C18.2448 18.192 17.7451 18.6916 17.7451 19.308C17.7451 19.9244 18.2448 20.4241 18.8612 20.4241Z" fill="#091476" fill-opacity="0.57"/>
<path d="M23.8839 20.2009C24.5003 20.2009 25 19.7012 25 19.0848V14.9554C25 12.4937 22.9973 10.4911 20.5357 10.4911H19.1944V6.55502C19.1944 2.94057 16.1903 0 12.4979 0C8.80552 0 5.80151 2.94057 5.80151 6.55502V10.4911H4.46429C2.00268 10.4911 0 12.4937 0 14.9554V24.1071C0 26.5688 2.00268 28.5714 4.46429 28.5714H20.5357C22.9973 28.5714 25 26.5688 25 24.1071C25 23.4907 24.5003 22.9911 23.8839 22.9911C23.2675 22.9911 22.7679 23.4907 22.7679 24.1071C22.7679 25.3379 21.7665 26.3393 20.5357 26.3393H4.46429C3.23348 26.3393 2.23214 25.3379 2.23214 24.1071V14.9554C2.23214 13.7246 3.23348 12.7232 4.46429 12.7232H20.5357C21.7665 12.7232 22.7679 13.7246 22.7679 14.9554V19.0848C22.7679 19.7012 23.2675 20.2009 23.8839 20.2009ZM16.9622 10.4911H8.03365V6.55502C8.03365 4.17137 10.0363 2.23214 12.4979 2.23214C14.9595 2.23214 16.9622 4.17137 16.9622 6.55502V10.4911Z" fill="#091476" fill-opacity="0.57"/>
<path d="M10.4354 20.4241C11.0518 20.4241 11.5515 19.9244 11.5515 19.308C11.5515 18.6916 11.0518 18.192 10.4354 18.192C9.81902 18.192 9.31934 18.6916 9.31934 19.308C9.31934 19.9244 9.81902 20.4241 10.4354 20.4241Z" fill="#091476" fill-opacity="0.57"/>
<path d="M6.24986 20.4241C6.86625 20.4241 7.36593 19.9244 7.36593 19.308C7.36593 18.6916 6.86625 18.192 6.24986 18.192C5.63347 18.192 5.13379 18.6916 5.13379 19.308C5.13379 19.9244 5.63347 20.4241 6.24986 20.4241Z" fill="#091476" fill-opacity="0.57"/>
<path d="M14.621 20.4241C15.2373 20.4241 15.737 19.9244 15.737 19.308C15.737 18.6916 15.2373 18.192 14.621 18.192C14.0046 18.192 13.5049 18.6916 13.5049 19.308C13.5049 19.9244 14.0046 20.4241 14.621 20.4241Z" fill="#091476" fill-opacity="0.57"/>
</svg>
