<svg width="43" height="43" viewBox="0 0 43 43" fill="none" xmlns="http://www.w3.org/2000/svg">
<path d="M24.2419 28.8492C24.5854 29.0669 24.9585 29.2565 25.3149 29.4341C25.605 29.5786 25.883 29.7174 26.1486 29.8697L26.811 30.2496L27.3519 29.7107L30.5538 26.5209C31.3397 25.738 32.1964 25.378 33.0321 25.378C33.8661 25.378 34.7078 25.7363 35.461 26.5161L35.4677 26.523L35.4745 26.5298L40.8498 31.8848C41.6524 32.6843 41.9984 33.5467 42 34.3581C42.0016 35.1719 41.6569 36.0545 40.8532 36.889L40.8528 36.8894C40.4554 37.3024 40.0376 37.7102 39.6221 38.1065L39.6171 38.1113C39.5725 38.1545 39.5277 38.1977 39.4828 38.2411C38.92 38.7848 38.3369 39.348 37.8174 39.9727L37.787 40.0091C36.5318 41.352 35.0213 42 33.0768 42C32.9015 42 32.7318 41.9926 32.5284 41.9838L32.5226 41.9836C29.4074 41.7806 26.5766 40.6058 24.376 39.5671C18.6577 36.8052 13.6468 32.9028 9.48038 27.9414C6.03328 23.8151 3.73751 19.9836 2.21934 15.8784L2.21844 15.876C1.23278 13.2316 0.880408 11.1195 1.03489 9.17887C1.15831 7.71649 1.74236 6.46768 2.79213 5.42187L6.1283 2.0983C6.9286 1.34149 7.77914 1 8.61537 1C9.46511 1 10.3047 1.34491 11.0648 2.08748L11.075 2.09738L11.0854 2.10699C11.6727 2.64912 12.2742 3.25664 12.8629 3.86091L12.8632 3.86122L12.8896 3.88827C13.1838 4.18993 13.4759 4.48952 13.7857 4.79817L16.451 7.45337L16.4543 7.45661C17.2779 8.26962 17.6414 9.13882 17.6414 9.95255C17.6414 10.7627 17.272 11.6339 16.451 12.4517L16.4483 12.4544C16.1734 12.7282 15.8918 13.0088 15.6182 13.2904C14.8594 14.0642 14.0917 14.8371 13.2766 15.5714L12.7423 16.0527L13.0285 16.7124C13.6735 18.1989 14.5866 19.6287 15.8992 21.2838L15.904 21.2899L15.9089 21.2959C18.4967 24.4569 21.2221 26.9389 24.2419 28.8492ZM24.2419 28.8492C24.242 28.8493 24.2422 28.8494 24.2423 28.8495L24.7769 28.0044L24.2415 28.8489C24.2416 28.849 24.2418 28.8491 24.2419 28.8492ZM37.8431 39.9498C37.8454 39.9474 37.8462 39.9467 37.8447 39.9482L37.8431 39.9498ZM1.2246 9.19409L1.22454 9.19409L1.2237 9.20464C1.06509 11.1897 1.45841 13.3112 2.41078 15.8448C3.94258 19.9626 6.25241 23.7833 9.64507 27.8518L9.64699 27.8541C13.7883 32.7903 18.7842 36.6836 24.4768 39.4279L24.4826 39.4307C26.552 40.412 29.4238 41.6241 32.557 41.8239L32.5622 41.8242C32.7118 41.833 32.9004 41.8438 33.0857 41.8438C34.9304 41.8438 36.4262 41.223 37.6546 39.9035L37.6722 39.8845L37.6889 39.8647C38.2123 39.2405 38.7917 38.6801 39.3947 38.0969C39.4247 38.0679 39.4547 38.0388 39.4848 38.0097C39.9057 37.6082 40.3132 37.2118 40.7064 36.7925C41.3595 36.1133 41.7993 35.3101 41.8065 34.4086C41.8137 33.4965 41.3768 32.6963 40.714 32.0361L40.7135 32.0355L35.3328 26.684C34.9083 26.233 34.1119 25.5877 33.0321 25.5877C32.132 25.5877 31.3293 26.0349 30.6896 26.6722L27.3446 30.0046C27.2116 30.1371 27.0005 30.3189 26.7177 30.3189C26.607 30.3189 26.4762 30.2934 26.3068 30.2065L26.3068 30.2064L26.3032 30.2046C26.3014 30.2036 26.299 30.2022 26.2957 30.2004L26.2931 30.1989C26.2848 30.1941 26.2703 30.1859 26.2519 30.1759C25.9194 29.9681 25.561 29.7859 25.2179 29.615C25.1458 29.5783 25.0759 29.543 25.0078 29.5087C24.6835 29.345 24.4019 29.203 24.1316 29.0276L24.1316 29.0276L24.122 29.0215C21.1138 27.1183 18.3675 24.6386 15.7441 21.416C14.3022 19.6092 13.4022 18.1272 12.7586 16.5936C12.752 16.5757 12.7464 16.5616 12.743 16.5532C12.6759 16.3491 12.6558 16.2101 12.67 16.0949C12.6814 16.0026 12.7238 15.8427 12.9523 15.615L12.9747 15.5927L12.9758 15.5916C13.7867 14.8746 14.5275 14.128 15.2781 13.3714C15.3412 13.3079 15.4043 13.2443 15.4675 13.1806C15.6083 13.0403 15.7486 12.8983 15.8856 12.7596L15.8871 12.7581C16.0262 12.6173 16.162 12.4798 16.2973 12.345C16.957 11.6878 17.4323 10.8867 17.4323 9.97037C17.4323 9.05399 16.957 8.2529 16.2973 7.59574L13.637 4.94549C13.4809 4.78553 13.3251 4.62812 13.1732 4.47457L13.1687 4.47003C13.0129 4.31257 12.8612 4.15924 12.7121 4.00638L12.7121 4.00636L12.7071 4.00124C12.6275 3.92079 12.5482 3.84043 12.469 3.76022C11.9574 3.24189 11.4518 2.7297 10.9196 2.23818C10.2781 1.59485 9.48771 1.18297 8.61537 1.18297C7.73946 1.18297 6.93063 1.5904 6.27647 2.21961L6.27015 2.22569L6.26394 2.23188L2.93683 5.54643C1.91036 6.56902 1.35289 7.77754 1.2246 9.19409Z" fill="#7379B1" stroke="#7379B1" stroke-width="2"/>
</svg>
