<svg width="26" height="21" viewBox="0 0 26 21" fill="none" xmlns="http://www.w3.org/2000/svg">
<path d="M13 7.71875C10.8459 7.71875 9.1 9.44724 9.1 11.5781C9.1 13.7098 10.8459 15.4375 13 15.4375C15.1536 15.4375 16.9 13.7098 16.9 11.5781C16.9 9.44724 15.1536 7.71875 13 7.71875ZM23.4 3.85938H20.28C19.851 3.85938 19.3887 3.53004 19.2533 3.12712L18.4467 0.731995C18.3108 0.329333 17.849 0 17.42 0H8.58C8.151 0 7.68872 0.329333 7.55326 0.732252L6.74674 3.12738C6.61076 3.53004 6.149 3.85938 5.72 3.85938H2.6C1.17 3.85938 0 5.01719 0 6.43229V18.0104C0 19.4255 1.17 20.5833 2.6 20.5833H23.4C24.83 20.5833 26 19.4255 26 18.0104V6.43229C26 5.01719 24.83 3.85938 23.4 3.85938ZM13 18.0104C9.41018 18.0104 6.5 15.1306 6.5 11.5781C6.5 8.02596 9.41018 5.14583 13 5.14583C16.5893 5.14583 19.5 8.02596 19.5 11.5781C19.5 15.1306 16.5893 18.0104 13 18.0104ZM22.49 8.23153C21.9877 8.23153 21.58 7.82861 21.58 7.33101C21.58 6.83392 21.9877 6.43049 22.49 6.43049C22.9928 6.43049 23.4 6.83392 23.4 7.33101C23.4 7.82861 22.9926 8.23153 22.49 8.23153Z" fill="#091476"/>
</svg>
