<svg width="171" height="171" viewBox="0 0 171 171" fill="none" xmlns="http://www.w3.org/2000/svg">
<path d="M85.5 0C38.2872 0 0 38.2867 0 85.4989C0 132.711 38.2872 170.998 85.5 170.998C132.713 170.998 171 132.711 171 85.4989C171 38.2867 132.713 0 85.5 0Z" fill="#FBE22D" fill-opacity="0.49"/>
<path d="M85.4282 109.243L71.7812 111.07L72.436 115.584L85.3937 125.268L98.5582 115.584L99.2129 111.07L85.4282 109.243Z" fill="#C7C8C9"/>
<path d="M144.226 131.918C141.297 122.51 116.243 114.929 85.365 114.929C54.4871 114.929 29.709 122.51 26.7798 131.918C25.8838 134.847 24.8844 139.569 23.9194 144.807C39.4618 160.969 61.3106 170.998 85.5029 170.998C109.695 170.998 131.544 160.935 147.086 144.807C146.156 139.569 145.156 134.813 144.226 131.918Z" fill="#091476"/>
<path fill-rule="evenodd" clip-rule="evenodd" d="M120.809 146.195C120.823 146.195 120.837 146.195 120.851 146.195C120.702 146.96 120.555 147.725 120.408 148.491C120.342 148.833 120.276 149.175 120.21 149.517C120.081 150.177 120.278 150.888 120.728 151.397C121.162 151.902 121.83 152.204 122.505 152.198C122.749 150.918 122.994 149.637 123.247 148.358C123.547 148.353 123.849 148.357 124.15 148.361C125.038 148.372 125.928 148.382 126.795 148.176C127.656 147.98 128.487 147.569 129.077 146.914C129.726 146.203 130.06 145.265 130.162 144.329C130.23 143.747 130.155 143.133 129.847 142.622C129.502 142.008 128.861 141.605 128.186 141.412C127.331 141.172 126.432 141.163 125.549 141.172C124.327 141.172 123.105 141.173 121.883 141.174L120.809 146.195ZM121.577 141.174C121.574 141.174 121.571 141.174 121.568 141.174C119.66 141.176 117.752 141.177 115.845 141.175C115.841 141.762 116.075 142.348 116.492 142.772C116.937 143.243 117.587 143.513 118.241 143.518C118.414 143.518 118.588 143.518 118.761 143.518C119.532 143.518 120.304 143.518 121.075 143.519L121.577 141.174ZM121.001 143.862C120.343 143.859 119.685 143.86 119.027 143.861C118.424 143.862 117.821 143.863 117.218 143.861C117.21 144.455 117.455 145.045 117.879 145.47C118.326 145.929 118.972 146.201 119.622 146.195C119.739 146.195 119.856 146.196 119.973 146.196C120.149 146.196 120.326 146.196 120.502 146.196L121.001 143.862ZM123.903 144.941C123.979 144.547 124.055 144.154 124.133 143.76C124.366 143.761 124.6 143.761 124.833 143.76C125.265 143.759 125.697 143.758 126.129 143.764C126.169 143.767 126.209 143.77 126.249 143.772C126.549 143.79 126.865 143.809 127.115 143.984C127.267 144.094 127.303 144.292 127.282 144.466C127.244 144.835 127.107 145.229 126.788 145.456C126.432 145.709 125.976 145.765 125.548 145.78C125.189 145.783 124.831 145.783 124.472 145.782C124.228 145.782 123.985 145.782 123.741 145.782C123.796 145.502 123.849 145.222 123.903 144.941Z" fill="#DBC313"/>
<path d="M85.3644 114.895C54.4865 114.895 85.5022 170.998 85.5022 170.998C85.5022 170.998 116.242 114.895 85.3644 114.895Z" fill="#E4E9ED"/>
<path d="M85.5021 124.233L80.0571 126.956L85.5021 135.778L90.9126 126.956L85.5021 124.233Z" fill="#172023"/>
<path d="M98.9039 97.2159H72.0925C76.2624 109.829 72.4371 115.584 72.4371 115.584L81.7074 117.686H89.289L98.5593 115.584C98.5593 115.584 94.734 109.829 98.9039 97.2159Z" fill="#E2A379"/>
<path d="M85.4296 109.243L72.4375 115.584C72.4375 115.584 78.2271 125.268 85.3952 125.268C92.5633 125.268 98.5596 115.584 98.5596 115.584L85.4296 109.243Z" fill="#E2A379"/>
<path d="M85.4977 21.2275C68.7148 21.2275 55.0679 28.5334 55.0679 60.3758C55.0679 71.1622 57.2045 79.6053 60.4095 86.1185C67.4397 100.454 79.6048 105.451 85.4977 105.451C91.3907 105.451 103.556 100.454 110.586 86.1185C113.791 79.6053 115.928 71.1622 115.928 60.3758C115.928 28.5334 102.281 21.2275 85.4977 21.2275Z" fill="#4C230C"/>
<path d="M85.5002 21.2279C68.7172 21.2279 55.0703 28.5337 55.0703 60.3761C55.0703 71.1626 57.207 79.6056 60.4119 86.1188C67.4421 100.455 85.5002 100.386 85.5002 100.386C85.5002 100.386 103.558 100.455 110.588 86.1188C113.793 79.6056 115.93 71.1626 115.93 60.3761C115.93 28.5337 102.283 21.2279 85.5002 21.2279Z" fill="#F4B382"/>
<path d="M55.6213 61.3414C52.7265 61.8239 50.4865 63.099 52.1407 72.6793C53.7949 82.2595 55.8281 82.7076 58.7229 82.2251L55.6213 61.3414Z" fill="#F4B382"/>
<path d="M115.413 61.3414L112.312 82.2251C115.207 82.7076 117.24 82.2595 118.894 72.6793C120.514 63.099 118.308 61.8584 115.413 61.3414Z" fill="#F4B382"/>
<path d="M89.7727 86.1533C88.5665 85.981 85.4994 87.1527 85.4994 87.1527C85.4994 87.1527 82.3978 85.981 81.1917 86.1533C79.2273 86.429 76.3325 87.9798 76.3325 88.5312C76.3325 89.4272 80.4335 91.805 85.5338 91.805C90.6342 91.805 94.7352 89.3927 94.7352 88.5312C94.7007 88.5656 91.737 86.4635 89.7727 86.1533Z" fill="#E5A173"/>
<path d="M85.4997 89.0138C80.0547 89.0138 76.2983 88.5658 76.2983 88.5658C76.2983 89.4618 80.3993 92.839 85.4997 92.839C90.6 92.839 94.701 89.4273 94.701 88.5658C94.701 88.5658 90.9447 89.0138 85.4997 89.0138Z" fill="#D89364"/>
<path d="M85.4977 20.3672C65.5098 20.3672 55.0679 28.5346 55.0679 60.3769L68.4391 36.8053C68.4391 36.8053 77.9161 38.2871 85.4977 38.2871C93.0794 38.2871 101.419 36.8053 101.419 36.8053L115.928 60.3769C115.928 28.5346 105.486 20.3672 85.4977 20.3672Z" fill="#4C230C"/>
<path d="M62.0663 47.7637L57.0348 48.5219C55.5874 52.2782 55.105 56.9305 55.105 61.4449C55.105 61.4449 58.1376 60.7901 58.1376 62.3409L59.1026 71.8523L60.4466 71.1975C60.3087 63.2714 62.0663 47.7637 62.0663 47.7637Z" fill="#4C230C"/>
<path d="M119.547 25.4325C119.547 25.4325 106.383 13.371 85.4301 13.371C64.4773 13.371 51.4162 25.4325 51.4162 25.4325C51.4162 25.4325 47.7977 29.051 50.727 34.0479C50.8303 34.2202 50.9337 34.3925 51.0371 34.5304C52.6224 36.8737 55.8962 39.8719 55.8962 39.8719L54.8624 41.078L56.3443 43.0079C56.3443 43.0079 56.2753 48.0048 61.1345 48.0048C65.9936 48.0048 72.0244 46.1094 85.4646 46.1094C98.9047 46.1094 104.867 48.0048 109.795 48.0048C114.723 48.0048 114.688 42.87 114.688 42.87L116.067 41.078L115.033 39.8719C115.033 39.8719 118.238 36.9427 119.858 34.5993C119.995 34.3925 120.133 34.2202 120.237 34.0134C123.166 29.051 119.547 25.4325 119.547 25.4325Z" fill="#191919"/>
<path d="M115.17 39.9409C110.173 37.8387 99.2486 34.048 85.4983 34.048C71.7479 34.048 60.8235 37.8387 55.8265 39.9409L54.8271 41.1126L56.309 43.0769C61.5128 40.2166 72.1615 37.3218 85.4983 37.3218C98.8005 37.3218 109.484 40.1821 114.687 43.0769L116.169 41.1126L115.17 39.9409Z" fill="#AF9604"/>
<path d="M113.998 48.5216L108.967 48.3837C108.967 48.3837 110.724 63.2711 110.655 71.1972L111.999 71.852L112.964 62.3406C112.964 60.7899 115.997 61.4446 115.997 61.4446C115.962 56.8957 115.48 52.2779 113.998 48.5216Z" fill="#4C230C"/>
<path d="M99.2153 111.07L85.4995 125.406L98.1126 128.921L105.384 116.411L99.2153 111.07Z" fill="#D4D6D8"/>
<path d="M71.7825 111.07L65.6138 116.412L72.8852 128.921L85.4983 125.406L71.7825 111.07Z" fill="#D4D6D8"/>
<path d="M85.502 168.829L68.1332 115.723L67.7541 114.552L63.4464 116.344L56.7263 133.058L78.6786 170.724C80.9186 170.896 83.1931 171 85.502 171V168.829Z" fill="#040B49"/>
<path d="M107.555 116.341L107.349 116.272L103.248 114.549L102.869 115.755L85.4998 168.826V170.963C87.8087 170.963 90.0832 170.859 92.3232 170.687L114.275 133.055L107.555 116.341Z" fill="#040B49"/>
<path d="M92.0149 144.566C91.3257 136.778 86.7078 131.299 86.7078 131.299H85.5016V131.54V131.299H84.2955C84.2955 131.299 79.6776 136.778 78.9883 144.566C78.885 145.566 78.816 146.737 78.7126 148.047L85.5016 168.862L92.3251 148.012C92.2217 146.737 92.1183 145.566 92.0149 144.566Z" fill="#172023"/>
<path fill-rule="evenodd" clip-rule="evenodd" d="M84.4074 24.8772C84.4207 24.8772 84.4339 24.8771 84.4471 24.8771C84.2977 25.6422 84.1505 26.4074 84.0034 27.1728C83.9376 27.5147 83.8719 27.8567 83.8059 28.1986C83.6771 28.859 83.8737 29.5699 84.3236 30.0787C84.7575 30.5836 85.4254 30.8864 86.1005 30.8803C86.3444 29.5996 86.5896 28.3193 86.8429 27.0403C87.143 27.0355 87.4443 27.0391 87.746 27.0428C88.6335 27.0536 89.5235 27.0644 90.3904 26.8583C91.2519 26.6618 92.083 26.2514 92.6729 25.5958C93.3213 24.8854 93.6557 23.947 93.7574 23.0113C93.8256 22.4294 93.7507 21.8151 93.4426 21.3037C93.0974 20.69 92.4567 20.287 91.7816 20.094C90.9264 19.8536 90.0279 19.8449 89.1451 19.8536C87.924 19.8536 86.703 19.8546 85.482 19.8556L84.4074 24.8772ZM85.1752 19.8559C85.1713 19.8559 85.1675 19.8559 85.1636 19.8559C83.2558 19.8576 81.348 19.8593 79.4402 19.8575C79.4371 20.4443 79.6707 21.0302 80.0877 21.4536C80.5322 21.9249 81.1823 22.1954 81.8364 22.2002C82.0099 22.2002 82.1834 22.2002 82.3569 22.2002C83.1292 22.2002 83.9014 22.2001 84.6733 22.2011L85.1752 19.8559ZM84.6 22.544C83.9408 22.5407 83.2817 22.5419 82.6227 22.5431C82.0196 22.5443 81.4166 22.5454 80.8136 22.5431C80.8055 23.1372 81.0503 23.7275 81.4744 24.1522C81.922 24.6114 82.5673 24.8832 83.2174 24.8775C83.3345 24.8775 83.4517 24.8776 83.5688 24.8777C83.7461 24.8778 83.9233 24.8779 84.1006 24.8777L84.6 22.544ZM87.4992 23.6231C87.5749 23.2294 87.6506 22.8357 87.7285 22.4424C87.9619 22.443 88.1953 22.4426 88.4288 22.4421C88.8608 22.4413 89.2929 22.4404 89.7247 22.4463C89.7645 22.4491 89.8047 22.4516 89.8452 22.454C90.1451 22.4722 90.4603 22.4913 90.7106 22.6659C90.8626 22.7757 90.8992 22.9739 90.8773 23.1477C90.8394 23.5175 90.703 23.9109 90.3833 24.1378C90.0279 24.3914 89.5718 24.4467 89.1437 24.4619C88.7851 24.4653 88.4266 24.4648 88.068 24.4643C87.8242 24.464 87.5803 24.4637 87.3365 24.4646C87.3912 24.1842 87.4452 23.9036 87.4992 23.6231Z" fill="#DBC313"/>
<path d="M97.9046 86.4636C97.9046 84.6372 92.4941 83.6722 86.4977 83.3966C86.222 83.3966 85.5328 84.0513 85.4983 84.0513C85.4294 84.0513 84.8091 83.3621 84.5334 83.3966C78.537 83.6722 73.092 84.6372 73.092 86.4636C73.092 87.0495 72.644 91.1848 74.7462 89.9787C76.4693 87.7387 80.329 86.0501 84.4644 85.8778C84.8091 85.8778 85.1537 86.1535 85.4983 86.1535C85.8774 86.1535 86.222 85.8778 86.5666 85.8778C90.702 86.0501 94.355 87.463 96.2504 89.9787C98.3526 91.2193 97.9046 87.0495 97.9046 86.4636Z" fill="#4C230C"/>
</svg>
