<svg width="26" height="26" viewBox="0 0 26 26" fill="none" xmlns="http://www.w3.org/2000/svg">
<path d="M23.672 5.31739C24.712 3.9262 25.3345 2.4818 25.3375 1.44989C25.3363 1.11572 25.2692 0.854576 25.1416 0.660042C25.1282 0.636253 25.0914 0.573987 25.0265 0.512631C24.962 0.448669 24.9041 0.414496 24.8915 0.407587C24.6873 0.271388 24.4248 0.205688 24.0903 0.205688C23.0602 0.207426 21.6144 0.82909 20.2218 1.87011C19.0962 2.71183 17.9705 3.89724 16.4122 5.53873C16.1479 5.81713 15.8697 6.10984 15.5755 6.41678L12.5572 5.51279L12.5662 5.50415C12.6917 5.37746 12.7631 5.20324 12.7614 5.03204C12.7631 4.85133 12.69 4.67711 12.5641 4.55175L12.019 4.00617C11.8931 3.87949 11.7192 3.80688 11.5392 3.80688C11.3575 3.80688 11.1879 3.87692 11.0612 4.00489L10.2457 4.82026L9.81393 4.69142C9.90696 4.57339 9.95842 4.42598 9.95668 4.28072C9.95842 4.0974 9.88746 3.92665 9.75986 3.79997L9.21216 3.25265C9.08713 3.12729 8.91407 3.05551 8.7324 3.05551C8.55157 3.05551 8.3824 3.12601 8.25695 3.25352L7.50855 4.001L4.43956 3.08232C4.37079 3.06201 4.29809 3.05121 4.22022 3.05121C4.0022 3.05382 3.80016 3.13466 3.65265 3.28079L2.57369 4.35941C2.45123 4.48175 2.38246 4.64732 2.38379 4.80425C2.3799 5.03552 2.50795 5.24908 2.71301 5.35889L9.16679 8.96182C9.19837 8.97952 9.28967 9.047 9.32341 9.08072L11.1633 10.9189C9.44235 12.7308 7.90914 14.4856 6.71431 16.0121C6.60269 16.1539 6.49712 16.2922 6.39328 16.4293L1.40047 15.9762C1.37625 15.9732 1.34897 15.971 1.31435 15.971C1.08549 15.9757 0.86184 16.0661 0.695739 16.2265L0.192591 16.7288C0.0684289 16.8504 -0.00166322 17.0146 7.56251e-05 17.1733C-0.00381608 17.4154 0.142827 17.6393 0.363039 17.7374L3.87543 19.4045C3.90569 19.4196 3.98444 19.4754 4.00998 19.5009L4.30157 19.7901C4.21028 20.0469 4.164 20.2695 4.16139 20.465C4.16052 20.7265 4.24489 20.9504 4.40628 21.1117L4.41882 21.1225L4.42226 21.1251C4.58794 21.2855 4.80253 21.3672 5.06816 21.3672C5.25939 21.3642 5.48001 21.3188 5.73786 21.228L6.03375 21.5233C6.05669 21.5475 6.11163 21.6245 6.12591 21.6552L7.79061 25.1574C7.89229 25.3809 8.1116 25.5257 8.3504 25.5257H8.35383C8.51911 25.5257 8.67701 25.4595 8.79769 25.3385L9.31293 24.8219C9.46562 24.6611 9.55563 24.4393 9.55906 24.2054C9.55906 24.1769 9.55778 24.1549 9.55691 24.1427L9.10224 19.1352C9.23895 19.0323 9.37739 18.9264 9.51969 18.8157C11.0494 17.6199 12.8059 16.0865 14.6155 14.3693L16.4567 16.211C16.4865 16.2395 16.5562 16.3308 16.5766 16.3688L20.1751 22.8064C20.2849 23.0144 20.4965 23.1428 20.731 23.1428C20.8984 23.1428 21.0576 23.0766 21.1796 22.9539L22.2663 21.8687C22.4074 21.7214 22.4865 21.5212 22.4887 21.3024C22.4887 21.2289 22.4783 21.1576 22.4593 21.0906L21.54 18.0229L22.2879 17.2741C22.4138 17.1491 22.4852 16.9753 22.4852 16.7968C22.4852 16.6174 22.4156 16.4488 22.2888 16.3204L21.7403 15.7726C21.6148 15.6468 21.4413 15.5751 21.2627 15.5751C21.1113 15.5751 20.9633 15.6257 20.8478 15.7169L20.7193 15.2872L21.5356 14.4714C21.6611 14.3456 21.7325 14.1718 21.7325 13.9928C21.7325 13.8125 21.6628 13.6435 21.5356 13.5169L20.9896 12.9712C20.8637 12.8437 20.689 12.7715 20.5094 12.7715C20.329 12.7715 20.1542 12.8445 20.0309 12.9704L20.0253 12.9755L19.1211 9.95968C19.4335 9.66225 19.7298 9.37906 20.0132 9.11233C21.65 7.56024 22.8319 6.43966 23.672 5.31739Z" fill="white"/>
</svg>
