<svg width="26" height="26" viewBox="0 0 26 26" fill="none" xmlns="http://www.w3.org/2000/svg">
<path d="M23.8282 5.77454C24.8683 4.38335 25.4908 2.93895 25.4938 1.90704C25.4925 1.57287 25.4254 1.31173 25.2978 1.1172C25.2844 1.09341 25.2477 1.03114 25.1828 0.969785C25.1183 0.905823 25.0603 0.871649 25.0478 0.86474C24.8436 0.728541 24.581 0.662842 24.2465 0.662842C23.2165 0.664579 21.7707 1.28624 20.3781 2.32726C19.2525 3.16898 18.1268 4.35439 16.5685 5.99589C16.3041 6.27428 16.026 6.56699 15.7318 6.87394L12.7134 5.96995L12.7225 5.9613C12.8479 5.83462 12.9193 5.6604 12.9176 5.4892C12.9193 5.30848 12.8462 5.13426 12.7203 5.0089L12.1752 4.46332C12.0493 4.33664 11.8754 4.26403 11.6955 4.26403C11.5138 4.26403 11.3442 4.33408 11.2174 4.46204L10.4019 5.27741L9.97018 5.14858C10.0632 5.03054 10.1147 4.88313 10.1129 4.73787C10.1147 4.55455 10.0437 4.38381 9.91611 4.25712L9.36841 3.70981C9.24338 3.58445 9.07032 3.51267 8.88865 3.51267C8.70782 3.51267 8.53865 3.58316 8.4132 3.71067L7.6648 4.45815L4.59581 3.53947C4.52704 3.51916 4.45434 3.50836 4.37647 3.50836C4.15845 3.51097 3.95641 3.59181 3.8089 3.73794L2.72994 4.81656C2.60748 4.9389 2.53871 5.10447 2.54004 5.2614C2.53615 5.49267 2.6642 5.70624 2.86926 5.81604L9.32304 9.41897C9.35462 9.43668 9.44592 9.50416 9.47966 9.53787L11.3196 11.3761C9.5986 13.1879 8.06539 14.9427 6.87056 16.4692C6.75894 16.611 6.65337 16.7494 6.54953 16.8864L1.55672 16.4334C1.5325 16.4303 1.50522 16.4281 1.4706 16.4281C1.24174 16.4329 1.01809 16.5233 0.851989 16.6837L0.348841 17.186C0.224679 17.3075 0.154587 17.4718 0.156326 17.6304C0.152434 17.8725 0.299077 18.0964 0.519289 18.1946L4.03168 19.8616C4.06194 19.8767 4.14069 19.9325 4.16623 19.958L4.45782 20.2472C4.36653 20.504 4.32025 20.7267 4.31764 20.9221C4.31677 21.1836 4.40114 21.4076 4.56253 21.5688L4.57507 21.5797L4.57851 21.5823C4.74419 21.7427 4.95878 21.8244 5.22441 21.8244C5.41564 21.8213 5.63626 21.776 5.89411 21.6852L6.19 21.9805C6.21294 22.0047 6.26788 22.0816 6.28216 22.1123L7.94686 25.6145C8.04854 25.838 8.26785 25.9828 8.50665 25.9828H8.51008C8.67536 25.9828 8.83326 25.9167 8.95394 25.7957L9.46918 25.2791C9.62187 25.1182 9.71188 24.8965 9.71531 24.6626C9.71531 24.6341 9.71403 24.612 9.71316 24.5999L9.25849 19.5924C9.3952 19.4895 9.53364 19.3835 9.67594 19.2729C11.2057 18.0771 12.9621 16.5436 14.7717 14.8264L16.6129 16.6681C16.6428 16.6966 16.7124 16.7879 16.7328 16.8259L20.3313 23.2636C20.4412 23.4715 20.6527 23.5999 20.8872 23.5999C21.0547 23.5999 21.2139 23.5338 21.3359 23.411L22.4226 22.3259C22.5636 22.1785 22.6428 21.9783 22.6449 21.7596C22.6449 21.6861 22.6346 21.6148 22.6155 21.5477L21.6962 18.48L22.4442 17.7313C22.5701 17.6063 22.6415 17.4325 22.6415 17.254C22.6415 17.0745 22.5718 16.906 22.4451 16.7775L21.8965 16.2298C21.7711 16.104 21.5976 16.0322 21.4189 16.0322C21.2675 16.0322 21.1196 16.0828 21.004 16.1741L20.8755 15.7443L21.6919 14.9286C21.8173 14.8027 21.8887 14.6289 21.8887 14.45C21.8887 14.2697 21.8191 14.1007 21.6919 13.974L21.1459 13.4284C21.02 13.3008 20.8452 13.2286 20.6657 13.2286C20.4853 13.2286 20.3105 13.3017 20.1872 13.4275L20.1816 13.4327L19.2774 10.4168C19.5897 10.1194 19.886 9.83621 20.1694 9.56948C21.8062 8.01739 22.9881 6.89682 23.8282 5.77454Z" fill="#091476"/>
</svg>
