<svg width="193" height="185" viewBox="0 0 193 185" fill="none" xmlns="http://www.w3.org/2000/svg">
<path d="M190.222 169.026L146.512 126.955C157.256 113.625 163.669 96.9127 163.669 78.772C163.669 35.3352 126.958 1.35106e-07 81.8281 1.35106e-07C36.7105 -0.00252291 0 35.3327 0 78.772C0 122.211 36.7105 157.549 81.8306 157.549C101.294 157.549 119.183 150.966 133.245 140.004L176.807 181.932C178.65 183.716 181.085 184.609 183.51 184.609C185.944 184.609 188.369 183.716 190.222 181.932C193.926 178.362 193.926 172.594 190.222 169.026ZM18.9746 78.772C18.9746 45.4098 47.1747 18.2719 81.8306 18.2719C116.497 18.2719 144.697 45.4098 144.697 78.772C144.697 112.134 116.497 139.29 81.8306 139.29C47.1747 139.29 18.9746 112.132 18.9746 78.772Z" fill="#F9E658"/>
</svg>
