<svg width="23" height="22" viewBox="0 0 23 22" fill="none" xmlns="http://www.w3.org/2000/svg">
<path d="M22.669 20.143L17.46 15.1293C18.7403 13.5408 19.5046 11.5492 19.5046 9.38734C19.5046 4.21094 15.1297 1.61008e-08 9.75153 1.61008e-08C4.37482 -0.000300658 0 4.21064 0 9.38734C0 14.564 4.37482 18.7753 9.75183 18.7753C12.0713 18.7753 14.2032 17.9908 15.879 16.6844L21.0703 21.681C21.2899 21.8936 21.5801 22 21.869 22C22.1592 22 22.4481 21.8936 22.669 21.681C23.1103 21.2555 23.1103 20.5682 22.669 20.143ZM2.26123 9.38734C2.26123 5.41153 5.62186 2.17748 9.75183 2.17748C13.883 2.17748 17.2436 5.41153 17.2436 9.38734C17.2436 13.3631 13.883 16.5993 9.75183 16.5993C5.62186 16.5993 2.26123 13.3628 2.26123 9.38734Z" fill="#000850"/>
</svg>
