<svg width="29" height="28" viewBox="0 0 29 28" fill="none" xmlns="http://www.w3.org/2000/svg">
<path d="M14.5 16C18.6411 16 22 12.4117 22 7.98773C22 3.5638 18.6411 0 14.5 0C10.3589 0 7 3.58834 7 7.98773C7 12.3871 10.3589 16 14.5 16ZM14.5 2.0891C17.5368 2.0891 20.0215 4.74346 20.0215 7.98773C20.0215 11.232 17.5368 13.8863 14.5 13.8863C11.4632 13.8863 8.97851 11.2319 8.97851 7.98767C8.97851 4.74341 11.4632 2.0891 14.5 2.0891Z" fill="#7379B1"/>
<path d="M1.0238 28H27.9762C28.5476 28 29 27.5376 29 26.9536C29 21.4779 24.6429 17 19.2619 17H9.73811C4.38096 17 0 21.4535 0 26.9536C0 27.5376 0.452374 28 1.0238 28ZM9.73811 19.0929H19.2619C23.1666 19.0929 26.3809 22.0619 26.881 25.907H2.11904C2.61902 22.0863 5.83335 19.0929 9.73811 19.0929Z" fill="#7379B1"/>
</svg>
