<svg width="21" height="23" viewBox="0 0 21 23" fill="none" xmlns="http://www.w3.org/2000/svg">
<path d="M14.9146 9.88281C14.9146 9.38661 14.5048 8.98438 13.9993 8.98438H4.57156C4.06603 8.98438 3.65625 9.38661 3.65625 9.88281C3.65625 10.379 4.06603 10.7812 4.57156 10.7812H13.9993C14.5048 10.7812 14.9146 10.379 14.9146 9.88281Z" fill="#091476"/>
<path d="M4.57156 12.5781C4.06603 12.5781 3.65625 12.9804 3.65625 13.4766C3.65625 13.9728 4.06603 14.375 4.57156 14.375H10.2973C10.8029 14.375 11.2126 13.9728 11.2126 13.4766C11.2126 12.9804 10.8029 12.5781 10.2973 12.5781H4.57156Z" fill="#091476"/>
<path d="M6.72246 21.2031H3.66124C2.65184 21.2031 1.83062 20.397 1.83062 19.4062V3.59375C1.83062 2.60295 2.65184 1.79688 3.66124 1.79688H14.9145C15.9239 1.79688 16.7451 2.60295 16.7451 3.59375V9.11914C16.7451 9.61535 17.1549 10.0176 17.6604 10.0176C18.166 10.0176 18.5757 9.61535 18.5757 9.11914V3.59375C18.5757 1.61216 16.9333 0 14.9145 0H3.66124C1.64243 0 0 1.61216 0 3.59375V19.4062C0 21.3878 1.64243 23 3.66124 23H6.72246C7.22798 23 7.63777 22.5978 7.63777 22.1016C7.63777 21.6054 7.22798 21.2031 6.72246 21.2031Z" fill="#091476"/>
<path d="M20.1968 13.0081C19.1262 11.9572 17.3841 11.9572 16.3142 13.0074L11.289 17.9291C11.1823 18.0336 11.1036 18.1623 11.0597 18.3039L9.96532 21.8404C9.8683 22.154 9.95283 22.4944 10.186 22.729C10.3606 22.9046 10.5978 23 10.8412 23C10.9226 23 11.0048 22.9893 11.0855 22.9674L14.7799 21.9629C14.9319 21.9215 15.0705 21.8423 15.1822 21.7329L20.1969 16.8199C21.2675 15.769 21.2675 14.0591 20.1968 13.0081ZM14.0593 20.2943L12.2006 20.7997L12.7446 19.0419L16.1353 15.7211L17.43 16.9919L14.0593 20.2943ZM18.9031 15.5488L18.7257 15.7225L17.4312 14.4519L17.608 14.2788C17.9649 13.9285 18.5455 13.9285 18.9024 14.2788C19.2593 14.6291 19.2593 15.1991 18.9031 15.5488Z" fill="#091476"/>
<path d="M13.9993 5.39062H4.57156C4.06603 5.39062 3.65625 5.79286 3.65625 6.28906C3.65625 6.78527 4.06603 7.1875 4.57156 7.1875H13.9993C14.5048 7.1875 14.9146 6.78527 14.9146 6.28906C14.9146 5.79286 14.5048 5.39062 13.9993 5.39062Z" fill="#091476"/>
</svg>
